<svg width="90" height="90" xmlns="http://www.w3.org/2000/svg" xmlns:xlink="http://www.w3.org/1999/xlink" xml:space="preserve" overflow="hidden"><g transform="translate(-96 -133)"><path d="M124.481 199.206 103.275 178 124.012 157.262 127.988 161.238 111.225 178 128.456 195.231 124.481 199.206Z"/><path d="M157.05 199.206 153.075 195.231 170.306 178 153.544 161.238 157.519 157.262 178.256 178 157.05 199.206Z"/><path d="M145.688 178C145.688 180.589 143.589 182.688 141 182.688 138.411 182.688 136.312 180.589 136.312 178 136.312 175.411 138.411 173.312 141 173.312 143.589 173.312 145.688 175.411 145.688 178Z"/><path d="M130.688 178C130.688 180.589 128.589 182.688 126 182.688 123.411 182.688 121.312 180.589 121.312 178 121.312 175.411 123.411 173.312 126 173.312 128.589 173.312 130.688 175.411 130.688 178Z"/><path d="M160.688 178C160.688 180.589 158.589 182.688 156 182.688 153.411 182.688 151.312 180.589 151.312 178 151.312 175.411 153.411 173.312 156 173.312 158.589 173.312 160.688 175.411 160.688 178Z"/></g></svg>